<svg width="24" height="24" viewBox="0 0 24 24" fill="none" xmlns="http://www.w3.org/2000/svg">
<path d="M12 6.0293C10.9391 6.0293 9.92172 6.45072 9.17157 7.20087C8.42143 7.95101 8 8.96843 8 10.0293C8 11.0902 8.42143 12.1076 9.17157 12.8577C9.92172 13.6079 10.9391 14.0293 12 14.0293C13.0609 14.0293 14.0783 13.6079 14.8284 12.8577C15.5786 12.1076 16 11.0902 16 10.0293C16 8.96843 15.5786 7.95101 14.8284 7.20087C14.0783 6.45072 13.0609 6.0293 12 6.0293ZM10 10.0293C10 9.49886 10.2107 8.99016 10.5858 8.61508C10.9609 8.24001 11.4696 8.0293 12 8.0293C12.5304 8.0293 13.0391 8.24001 13.4142 8.61508C13.7893 8.99016 14 9.49886 14 10.0293C14 10.5597 13.7893 11.0684 13.4142 11.4435C13.0391 11.8186 12.5304 12.0293 12 12.0293C11.4696 12.0293 10.9609 11.8186 10.5858 11.4435C10.2107 11.0684 10 10.5597 10 10.0293Z" fill="#00ADAD"/>
<path fill-rule="evenodd" clip-rule="evenodd" d="M14.6435 19.5825C13.6235 20.6085 13.0035 21.6235 13.0035 23.0045H11.0035C11.0035 21.6245 10.3825 20.6095 9.36053 19.5835C8.84853 19.0695 8.26253 18.5795 7.62053 18.0435L7.58653 18.0135C6.94453 17.4765 6.25153 16.8955 5.60853 16.2475C4.35738 14.9858 3.50768 13.3821 3.1665 11.6383C2.82532 9.89453 3.00793 8.08879 3.69133 6.44864C4.37472 4.80849 5.52831 3.40732 7.00672 2.42171C8.48513 1.4361 10.2222 0.910156 11.999 0.910156C13.7759 0.910156 15.5129 1.4361 16.9913 2.42171C18.4697 3.40732 19.6233 4.80849 20.3067 6.44864C20.9901 8.08879 21.1727 9.89453 20.8316 11.6383C20.4904 13.3821 19.6407 14.9858 18.3895 16.2475C17.7475 16.8955 17.0555 17.4775 16.4145 18.0135L16.3845 18.0385C15.7415 18.5765 15.1545 19.0685 14.6435 19.5825ZM4.99953 9.91047C4.99946 8.76051 5.2827 7.62824 5.82422 6.61376C6.36573 5.59928 7.14884 4.73383 8.10432 4.09393C9.05979 3.45402 10.1582 3.05937 11.3024 2.94485C12.4467 2.83033 13.6015 2.99948 14.6649 3.43734C15.7282 3.8752 16.6673 4.56829 17.3991 5.45533C18.1309 6.34238 18.6329 7.39605 18.8608 8.52322C19.0886 9.65038 19.0352 10.8163 18.7054 11.918C18.3755 13.0196 17.7793 14.023 16.9695 14.8395C16.4025 15.4115 15.7795 15.9365 15.1295 16.4795L15.0695 16.5315C14.4495 17.0495 13.8025 17.5915 13.2255 18.1715C12.9385 18.4605 12.5015 19.5525 12.2305 20.2305L12.1845 20.3455H11.8275C11.7679 20.2001 11.7105 20.0537 11.6555 19.9065C11.4295 19.3135 11.1285 18.5245 10.7775 18.1715C10.1995 17.5915 9.55253 17.0515 8.93453 16.5345L8.86953 16.4805C8.21953 15.9355 7.59653 15.4115 7.02953 14.8395C5.72695 13.53 4.99691 11.7574 4.99953 9.91047Z" fill="#00ADAD"/>
</svg>
