<svg width="20" height="20" viewBox="0 0 20 20" fill="none" xmlns="http://www.w3.org/2000/svg">
<path fill-rule="evenodd" clip-rule="evenodd" d="M7.3 0C7.74161 0 8.13093 0.289668 8.25783 0.712652L12.7 15.5199L14.4422 9.71265C14.5691 9.28967 14.9584 9 15.4 9H19C19.5523 9 20 9.44771 20 10C20 10.5523 19.5523 11 19 11H16.144L13.6578 19.2873C13.5309 19.7103 13.1416 20 12.7 20C12.2584 20 11.8691 19.7103 11.7422 19.2873L7.3 4.4801L5.55783 10.2873C5.43093 10.7103 5.04161 11 4.6 11H1C0.447715 11 0 10.5523 0 10C0 9.44771 0.447715 9 1 9H3.85597L6.34217 0.712652C6.46907 0.289668 6.85839 0 7.3 0Z" fill="#85919E"/>
</svg>
