<svg width="24" height="24" viewBox="0 0 24 24" fill="none" xmlns="http://www.w3.org/2000/svg">
<path fill-rule="evenodd" clip-rule="evenodd" d="M4.59961 4.667C4.59961 4.298 4.89961 4 5.26661 4H5.68861C5.95383 4 6.20818 3.89464 6.39572 3.70711C6.58325 3.51957 6.68861 3.26522 6.68861 3C6.68861 2.73478 6.58325 2.48043 6.39572 2.29289C6.20818 2.10536 5.95383 2 5.68861 2H5.26661C4.55928 2 3.88092 2.28099 3.38076 2.78115C2.8806 3.28131 2.59961 3.95967 2.59961 4.667V8C2.59979 9.41797 3.102 10.7901 4.01721 11.8732C4.93242 12.9562 6.20154 13.6803 7.59961 13.917V16.5C7.59961 17.9587 8.17907 19.3576 9.21052 20.3891C10.242 21.4205 11.6409 22 13.0996 22C14.5583 22 15.9572 21.4205 16.9887 20.3891C18.0201 19.3576 18.5996 17.9587 18.5996 16.5V15.83C19.2671 15.5941 19.8297 15.1298 20.188 14.5192C20.5462 13.9086 20.6771 13.191 20.5574 12.4932C20.4377 11.7954 20.0752 11.1625 19.534 10.7061C18.9927 10.2498 18.3076 9.99951 17.5996 9.99951C16.8917 9.99951 16.2065 10.2498 15.6652 10.7061C15.124 11.1625 14.7615 11.7954 14.6418 12.4932C14.5221 13.191 14.653 13.9086 15.0112 14.5192C15.3695 15.1298 15.9321 15.5941 16.5996 15.83V16.5C16.5996 16.9596 16.5091 17.4148 16.3332 17.8394C16.1573 18.264 15.8995 18.6499 15.5745 18.9749C15.2495 19.2999 14.8636 19.5577 14.439 19.7336C14.0144 19.9095 13.5592 20 13.0996 20C12.64 20 12.1849 19.9095 11.7602 19.7336C11.3356 19.5577 10.9497 19.2999 10.6247 18.9749C10.2997 18.6499 10.0419 18.264 9.86603 17.8394C9.69014 17.4148 9.59961 16.9596 9.59961 16.5V13.917C10.9977 13.6803 12.2668 12.9562 13.182 11.8732C14.0972 10.7901 14.5994 9.41797 14.5996 8V4.667C14.5996 3.95967 14.3186 3.28131 13.8185 2.78115C13.3183 2.28099 12.6399 2 11.9326 2H11.6006C11.3354 2 11.081 2.10536 10.8935 2.29289C10.706 2.48043 10.6006 2.73478 10.6006 3C10.6006 3.26522 10.706 3.51957 10.8935 3.70711C11.081 3.89464 11.3354 4 11.6006 4H11.9326C12.3016 4 12.5996 4.298 12.5996 4.667V8C12.5996 9.06087 12.1782 10.0783 11.428 10.8284C10.6779 11.5786 9.66048 12 8.59961 12C7.53874 12 6.52133 11.5786 5.77118 10.8284C5.02104 10.0783 4.59961 9.06087 4.59961 8V4.667ZM17.5996 12C17.3344 12 17.08 12.1054 16.8925 12.2929C16.705 12.4804 16.5996 12.7348 16.5996 13C16.5996 13.2652 16.705 13.5196 16.8925 13.7071C17.08 13.8946 17.3344 14 17.5996 14C17.8648 14 18.1192 13.8946 18.3067 13.7071C18.4943 13.5196 18.5996 13.2652 18.5996 13C18.5996 12.7348 18.4943 12.4804 18.3067 12.2929C18.1192 12.1054 17.8648 12 17.5996 12Z" fill="#85919E"/>
</svg>
